<svg width="36" height="34" viewBox="0 0 36 34" fill="none" xmlns="http://www.w3.org/2000/svg">
<path d="M6.00305 3.66388C7.85089 2.0185 10.0213 0.771046 12.3777 0C13.0515 0.839085 13.9069 1.51641 14.8803 1.98162C15.8537 2.44683 16.92 2.68796 18.0001 2.68708C19.0802 2.68796 20.1465 2.44683 21.1199 1.98162C22.0933 1.51641 22.9487 0.839085 23.6225 0C25.9789 0.771046 28.1493 2.0185 29.9971 3.66388C29.6039 4.66294 29.4421 5.73722 29.5237 6.80696C29.6054 7.8767 29.9283 8.91442 30.4687 9.84309C31.0079 10.7735 31.7511 11.5712 32.6432 12.1767C33.5353 12.7822 34.5532 13.1801 35.6213 13.3406C36.1262 15.7538 36.1262 18.2444 35.6213 20.6576C33.5336 20.9761 31.6079 22.1962 30.4687 24.1551C29.9281 25.084 29.6049 26.1221 29.5233 27.1921C29.4417 28.2622 29.6036 29.3368 29.9971 30.3361C28.1491 31.9809 25.9787 33.2277 23.6225 33.9982C22.9485 33.1595 22.093 32.4825 21.1197 32.0176C20.1463 31.5527 19.08 31.3118 18.0001 31.3129C16.92 31.312 15.8537 31.5532 14.8803 32.0184C13.9069 32.4836 13.0515 33.1609 12.3777 34C10.0214 33.2295 7.85105 31.9826 6.00305 30.3379C6.39656 29.3386 6.55852 28.264 6.47688 27.1939C6.39525 26.1238 6.07213 25.0858 5.53152 24.1569C4.99212 23.2268 4.24875 22.4295 3.35668 21.8243C2.46462 21.2191 1.44679 20.8215 0.37887 20.6612C-0.12629 18.2474 -0.12629 15.7561 0.37887 13.3424C1.44695 13.1818 2.46488 12.784 3.35696 12.1785C4.24904 11.573 4.99232 10.7753 5.53152 9.84488C6.07185 8.91621 6.39482 7.87849 6.47645 6.80875C6.55808 5.73901 6.39628 4.66294 6.00305 3.66388ZM20.6997 21.6469C21.3187 21.2971 21.862 20.829 22.2982 20.2696C22.7345 19.7102 23.0551 19.0706 23.2417 18.3875C23.4283 17.7044 23.4771 16.9914 23.3853 16.2895C23.2935 15.5876 23.063 14.9107 22.7069 14.2977C22.3509 13.6848 21.8764 13.1479 21.3108 12.7179C20.7451 12.288 20.0996 11.9735 19.4112 11.7926C18.7228 11.6117 18.0052 11.5679 17.2997 11.6638C16.5942 11.7597 15.9148 11.9933 15.3005 12.3513C14.0705 13.068 13.1757 14.2393 12.8112 15.6095C12.4468 16.9797 12.6424 18.4375 13.3553 19.6649C14.0682 20.8922 15.2405 21.7895 16.6165 22.1608C17.9924 22.5322 19.4603 22.3474 20.6997 21.6469Z" fill="#42A5F5"/>
</svg>
