<svg width="87" height="93" viewBox="0 0 87 93" fill="none" xmlns="http://www.w3.org/2000/svg">
<path d="M13 83.2235H25.8218H45.1631C51.2383 83.2235 56.1631 78.2986 56.1631 72.2235V37.0513C56.1631 30.9761 51.2383 26.0513 45.1631 26.0513H13C6.92487 26.0513 2 30.9761 2 37.0513V72.2235C2 78.2986 6.92486 83.2235 13 83.2235Z" fill="#EEF7FF" stroke="#1B8CFF" stroke-width="3" stroke-dasharray="6 6"/>
<path d="M34.9998 44.5484C33.161 44.5472 31.3442 44.9497 29.684 45.7276C28.3457 46.3546 27.1358 47.2132 26.1125 48.2604C23.4403 47.2929 20.9552 45.8961 18.7603 44.1293C19.1687 42.7522 19.3226 41.3113 19.2108 39.8747C19.0704 38.0703 18.5148 36.322 17.5874 34.7596C16.6621 33.1959 15.3891 31.8588 13.8657 30.8456C12.6416 30.0314 11.2804 29.4426 9.84916 29.1037C9.38361 26.3884 9.38361 23.6167 9.84919 20.9014C11.2807 20.5622 12.6422 19.973 13.8665 19.1583C15.39 18.1444 16.6629 16.8067 17.5879 15.2422C18.5146 13.6803 19.0698 11.9328 19.2102 10.1293C19.3219 8.69315 19.1683 7.25085 18.76 5.87323C20.9548 4.10559 23.4401 2.70792 26.1126 1.73972C27.136 2.7869 28.3457 3.64538 29.684 4.27244C31.3442 5.05036 33.1612 5.45288 35.0001 5.45159M34.9998 44.5484C36.8386 44.5468 38.6553 44.9488 40.3156 45.7262C41.654 46.3529 42.8639 47.211 43.8875 48.2579C46.5598 47.2904 49.045 45.8935 51.24 44.1267C50.8316 42.7496 50.6777 41.3087 50.7895 39.8721C50.9299 38.0675 51.4856 36.319 52.4132 34.7565C54.1707 31.7939 57.0142 29.8475 60.1507 29.1003C60.6163 26.3853 60.6164 23.6139 60.151 20.8988C58.7195 20.5596 57.3581 19.9704 56.1338 19.1557C54.6099 18.1416 53.3368 16.8034 52.4117 15.2384C51.4854 13.6768 50.9305 11.9297 50.7901 10.1266C50.6783 8.69043 50.8321 7.24989 51.2402 5.87317C49.0454 4.10556 46.5602 2.70791 43.8877 1.73972C42.8643 2.7869 41.6546 3.64538 40.3163 4.27244C38.656 5.05036 36.8391 5.45288 35.0001 5.45159M34.9998 44.5484C35.0003 44.5484 35.0008 44.5484 35.0013 44.5484L35.0001 46.0484L34.9986 44.5484C34.999 44.5484 34.9994 44.5484 34.9998 44.5484ZM35.0001 5.45159C34.9997 5.45159 34.9993 5.45159 34.9989 5.45159L35.0001 3.95159L35.0013 5.45159C35.0009 5.45159 35.0005 5.45159 35.0001 5.45159ZM42.6212 30.7421L41.4473 29.8083L42.6212 30.7421C43.3996 29.7636 43.9733 28.6426 44.3075 27.443C44.6417 26.2434 44.7293 24.9904 44.5648 23.7569C44.4002 22.5234 43.9872 21.3355 43.3509 20.2615C42.7147 19.1877 41.8684 18.2497 40.8625 17.5001C39.8566 16.7505 38.7107 16.2037 37.491 15.8895C36.2714 15.5752 35.0006 15.4993 33.7514 15.6657C32.5022 15.8322 31.2974 16.238 30.2066 16.8612C28.0225 18.1091 26.4223 20.1552 25.7692 22.5624C25.1159 24.9707 25.4676 27.5318 26.7424 29.6835C28.0163 31.8337 30.1041 33.3948 32.541 34.0395C34.9773 34.6841 37.5772 34.3644 39.7765 33.1458C40.8757 32.5368 41.8429 31.7205 42.6212 30.7421Z" fill="white" stroke="#1B8CFF" stroke-width="3"/>
<path d="M41.8369 91.2476H54.6587H74.0001C80.0752 91.2476 85.0001 86.3228 85.0001 80.2477V45.0754C85.0001 39.0003 80.0752 34.0754 74 34.0754H41.8369C35.7618 34.0754 30.8369 39.0003 30.8369 45.0754V80.2476C30.8369 86.3228 35.7618 91.2476 41.8369 91.2476Z" fill="#B4D6F8" stroke="#1B8CFF" stroke-width="3"/>
<path d="M37.1057 48.1179H74.4682M37.1057 54.3868H65.4411M37.1057 61.1572H53.6556" stroke="#1B8CFF" stroke-width="3"/>
</svg>
