<svg width="123" height="115" viewBox="0 0 123 115" fill="none" xmlns="http://www.w3.org/2000/svg">
<path d="M103.211 91.6053H32C25.3726 91.6053 20 86.2327 20 79.6053V79C20 72.3726 25.3726 67 32 67H103.211" stroke="#1B8CFF" stroke-width="4" stroke-linecap="round"/>
<path d="M93.3682 67.4478V79.5267M93.3682 91.6057V79.5267M93.3682 79.5267H41.0261" stroke="#1B8CFF" stroke-width="4" stroke-linecap="round"/>
<path d="M89.0263 88.9213H32.1316C27.161 88.9213 23.1316 84.8918 23.1316 79.9213V77.7371" stroke="#1B8CFF"/>
<path d="M2 94.2896H121" stroke="#D9EAFB" stroke-width="3" stroke-linecap="round"/>
<path d="M48 110.42V80.251H74.8169V110.42L61.4085 97.0115L48 110.42Z" fill="#B4D6F8" stroke="#1B8CFF" stroke-width="3"/>
<path fill-rule="evenodd" clip-rule="evenodd" d="M66.2403 3.01563C66.4709 3.46289 66.5282 4.03567 66.6426 5.18122C66.8594 7.34953 66.968 8.43371 67.4218 9.02855C67.9974 9.7831 68.9336 10.1709 69.8742 10.0443C70.6157 9.9446 71.4588 9.25464 73.1454 7.87474C74.0364 7.14573 74.4818 6.78123 74.9612 6.62808C75.5701 6.43358 76.2289 6.46642 76.8153 6.72056C77.277 6.92065 77.6841 7.32765 78.4982 8.14171L80.8584 10.5018C81.6722 11.3159 82.0793 11.7229 82.2795 12.1847C82.5336 12.7712 82.5664 13.4299 82.372 14.0387C82.2188 14.5181 81.8542 14.9636 81.1252 15.8547C79.7453 17.5413 79.0553 18.3845 78.9557 19.1261C78.8292 20.0666 79.2169 21.0027 79.9714 21.5784C80.5662 22.0321 81.6503 22.1405 83.8187 22.3574C84.9643 22.472 85.5373 22.5292 85.9845 22.7598C86.5524 23.053 86.9951 23.542 87.23 24.1363C87.4151 24.6044 87.4151 25.18 87.4151 26.3311V29.6692C87.4151 30.8201 87.4151 31.3957 87.2302 31.8635C86.9951 32.4581 86.5524 32.9473 85.9842 33.2403C85.537 33.4709 84.9643 33.5282 83.819 33.6426C81.6514 33.8594 80.5676 33.9677 79.9727 34.4213C79.2177 34.9971 78.83 35.9336 78.9568 36.8745C79.0566 37.6157 79.7463 38.4586 81.1257 40.1447C81.8545 41.0354 82.2188 41.4807 82.372 41.9599C82.5666 42.569 82.5336 43.2278 82.2795 43.8145C82.0793 44.2762 81.6725 44.683 80.8586 45.4969L78.4982 47.8573C77.6843 48.6712 77.2773 49.0782 76.8156 49.2785C76.2289 49.5326 75.5703 49.5653 74.9615 49.3709C74.482 49.2177 74.0364 48.8532 73.1454 48.1241C71.4588 46.7442 70.6157 46.0542 69.8742 45.9546C68.9336 45.8281 67.9974 46.2159 67.4218 46.9703C66.968 47.5652 66.8597 48.6495 66.6428 50.8182C66.5282 51.9643 66.4709 52.5373 66.24 52.9848C65.9471 53.5527 65.4581 53.9949 64.864 54.23C64.396 54.4151 63.8201 54.4151 62.6684 54.4151H59.3311C58.18 54.4151 57.6044 54.4151 57.1363 54.23C56.542 53.9951 56.053 53.5524 55.7598 52.9845C55.5292 52.5373 55.472 51.9643 55.3574 50.8187C55.1405 48.6503 55.0321 47.5662 54.5783 46.9714C54.0027 46.2169 53.0666 45.8292 52.1261 45.9557C51.3846 46.0553 50.5412 46.7453 48.8546 48.1254C47.9635 48.8545 47.518 49.219 47.0386 49.372C46.4298 49.5666 45.7711 49.5336 45.1846 49.2795C44.7228 49.0796 44.3158 48.6725 43.5017 47.8584L41.1416 45.4982C40.3275 44.6843 39.9205 44.2773 39.7204 43.8156C39.4663 43.2289 39.4335 42.5703 39.6279 41.9615C39.7811 41.482 40.1456 41.0364 40.8747 40.1454C42.2546 38.4588 42.9446 37.6157 43.0443 36.8739C43.1708 35.9336 42.7831 34.9974 42.0285 34.4218C41.4337 33.968 40.3495 33.8594 38.1812 33.6426C37.0356 33.5282 36.4629 33.4709 36.0156 33.2403C35.4476 32.9471 35.005 32.4581 34.77 31.8638C34.585 31.3957 34.585 30.8201 34.585 29.669V26.3314C34.585 25.18 34.585 24.6041 34.7701 24.136C35.0051 23.542 35.4475 23.053 36.0154 22.7601C36.4628 22.5292 37.0357 22.472 38.1815 22.3574C40.3504 22.1405 41.4349 22.032 42.0298 21.578C42.7841 21.0025 43.1717 20.0666 43.0454 19.1263C42.9457 18.3846 42.2555 17.541 40.8751 15.8539C40.1458 14.9625 39.7811 14.5168 39.628 14.0372C39.4336 13.4285 39.4665 12.7701 39.7204 12.1838C39.9205 11.7219 40.3277 11.3147 41.1421 10.5003L43.5018 8.14058C44.3159 7.32647 44.7229 6.91941 45.1847 6.71934C45.7712 6.46523 46.4299 6.43239 47.0387 6.62686C47.5181 6.78002 47.9637 7.1446 48.8549 7.87376C50.5413 9.25353 51.3845 9.94341 52.1257 10.0433C53.0666 10.1699 54.003 9.78206 54.5787 9.0272C55.0323 8.43247 55.1407 7.3486 55.3574 5.18087C55.472 4.03565 55.5292 3.46302 55.7598 3.01587C56.0528 2.44762 56.542 2.00491 57.1366 1.76989C57.6044 1.58496 58.18 1.58496 59.3309 1.58496H62.669C63.8201 1.58496 64.3957 1.58496 64.8638 1.77C65.4581 2.00501 65.9471 2.44757 66.2403 3.01563ZM61 38.5661C66.8354 38.5661 71.5661 33.8354 71.5661 28C71.5661 22.1646 66.8354 17.434 61 17.434C55.1646 17.434 50.434 22.1646 50.434 28C50.434 33.8354 55.1646 38.5661 61 38.5661Z" fill="#B4D6F8"/>
<path d="M83.8189 33.6425L83.6612 32.0655L83.6097 32.0708L83.5585 32.0793L83.8189 33.6425ZM83.8189 33.6425L83.9766 35.2198L84.0284 35.2145L84.0794 35.206L83.8189 33.6425ZM73.1454 48.1241L74.1492 46.8974L74.1354 46.8865L73.1454 48.1241ZM73.1454 48.1241L72.1416 49.3508L72.1554 49.3616L73.1454 48.1241ZM48.8546 48.1254L47.8509 46.8987L47.8258 46.9193L47.8016 46.9407L48.8546 48.1254ZM48.8546 48.1254L49.8581 49.3518L49.8832 49.3315L49.9075 49.3098L48.8546 48.1254ZM38.1815 22.3573V20.7724H38.1024L38.0238 20.7803L38.1815 22.3573ZM38.1815 22.3573L38.1815 23.9421H38.2605L38.3392 23.9345L38.1815 22.3573ZM68.2198 5.02347C68.1646 4.47163 68.1162 3.98062 68.0481 3.57407C67.977 3.1519 67.8698 2.71743 67.6487 2.28908L64.8315 3.74207C64.8413 3.76098 64.8777 3.8365 64.9218 4.09896C64.9686 4.37698 65.0061 4.74516 65.0655 5.33886L68.2198 5.02347ZM68.6818 8.0672C68.6913 8.07967 68.6031 7.96991 68.5032 7.41416C68.406 6.87361 68.3307 6.13422 68.2198 5.02347L65.0655 5.33886C65.1715 6.39642 65.2589 7.2833 65.3833 7.97559C65.5054 8.65272 65.6982 9.38246 66.1615 9.98977L68.6818 8.0672ZM69.6628 8.47352C69.2864 8.52415 68.9121 8.36904 68.6818 8.0672L66.1615 9.98977C67.0826 11.1971 68.5803 11.8175 70.0852 11.615L69.6628 8.47352ZM72.1416 6.64805C71.2778 7.35491 70.7017 7.8246 70.2508 8.13807C69.787 8.46031 69.6472 8.47563 69.6628 8.47352L70.0852 11.615C70.8423 11.5132 71.4947 11.1336 72.0597 10.741C72.6374 10.3396 73.3263 9.77435 74.1489 9.10132L72.1416 6.64805ZM74.4788 5.1183C74.0197 5.26495 73.6367 5.49622 73.288 5.7446C72.9523 5.98381 72.5709 6.29686 72.1416 6.64805L74.1489 9.10132C74.6106 8.72351 74.8978 8.48979 75.1273 8.3262C75.3439 8.1718 75.4232 8.14425 75.4435 8.13778L74.4788 5.1183ZM77.4455 5.26625C76.507 4.85964 75.453 4.80707 74.4788 5.1183L75.4435 8.13778C75.687 8.05996 75.9507 8.07311 76.1852 8.17476L77.4455 5.26625ZM79.6189 7.02098C79.2267 6.62882 78.8785 6.2794 78.5681 6.00796C78.2459 5.72613 77.8877 5.45789 77.4455 5.26625L76.1852 8.17476C76.2048 8.18321 76.2809 8.21853 76.4811 8.39374C76.6932 8.57936 76.9555 8.84045 77.3774 9.26235L79.6189 7.02098ZM81.9789 9.38106L79.6189 7.02098L77.3774 9.26235L79.7375 11.6225L81.9789 9.38106ZM83.7336 11.5545C83.5421 11.1122 83.2737 10.754 82.9919 10.4318C82.7206 10.1215 82.3711 9.77322 81.9789 9.38106L79.7375 11.6225C80.1594 12.0444 80.4206 12.3066 80.6061 12.5188C80.7815 12.7191 80.8166 12.7952 80.825 12.8148L83.7336 11.5545ZM83.8815 14.521C84.1927 13.5468 84.1401 12.4929 83.7336 11.5545L80.825 12.8148C80.9267 13.0494 80.94 13.3128 80.862 13.5564L83.8815 14.521ZM82.3518 16.8582C82.7029 16.429 83.0162 16.0477 83.2552 15.7119C83.5038 15.3633 83.7349 14.9801 83.8815 14.521L80.862 13.5564C80.8557 13.5766 80.8282 13.6559 80.6737 13.8726C80.5102 14.1022 80.2764 14.3892 79.8987 14.851L82.3518 16.8582ZM80.5263 19.3373C80.5242 19.3528 80.5395 19.2129 80.8618 18.7492C81.1753 18.2982 81.645 17.7222 82.3518 16.8582L79.8987 14.851C79.2256 15.6736 78.6603 16.3626 78.2588 16.9402C77.8663 17.5052 77.4867 18.1577 77.3848 18.9147L80.5263 19.3373ZM80.9326 20.3182C80.6309 20.088 80.4756 19.7135 80.5263 19.3373L77.3848 18.9147C77.1824 20.4196 77.8029 21.9174 79.0101 22.8385L80.9326 20.3182ZM83.9764 20.7803C82.8656 20.6692 82.1263 20.5941 81.5855 20.4968C81.03 20.3968 80.9201 20.3087 80.9326 20.3182L79.0101 22.8385C79.6174 23.3018 80.3472 23.4946 81.0242 23.6164C81.7166 23.7411 82.6036 23.8285 83.661 23.9345L83.9764 20.7803ZM86.7109 21.3513C86.2827 21.1304 85.8481 21.0229 85.426 20.952C85.0192 20.8838 84.5284 20.8355 83.9764 20.7803L83.661 23.9345C84.2548 23.9939 84.623 24.0314 84.9012 24.0782C85.1635 24.1223 85.239 24.1587 85.258 24.1685L86.7109 21.3513ZM88.7039 23.5535C88.328 22.6025 87.6198 21.8201 86.7109 21.3513L85.258 24.1685C85.4852 24.2858 85.6622 24.4812 85.7562 24.719L88.7039 23.5535ZM89 26.3311C89 25.7766 89.0008 25.2832 88.9733 24.8719C88.9448 24.4448 88.8811 24.0018 88.7039 23.5535L85.7562 24.719C85.7639 24.7388 85.7929 24.8175 85.8106 25.083C85.8294 25.3643 85.8302 25.7344 85.8302 26.3311H89ZM89 29.6692V26.3311H85.8302V29.6692H89ZM88.7041 32.4462C88.8811 31.9979 88.9448 31.5552 88.9733 31.1281C89.0008 30.7168 89 30.2236 89 29.6692H85.8302C85.8302 30.2656 85.8294 30.6357 85.8106 30.9168C85.7929 31.1822 85.7641 31.2612 85.7562 31.281L88.7041 32.4462ZM86.7106 34.6489C87.6198 34.1801 88.328 33.3974 88.7041 32.4462L85.7562 31.281C85.6622 31.5188 85.4852 31.7145 85.2578 31.8315L86.7106 34.6489ZM83.9766 35.2198C84.5284 35.1646 85.0192 35.1162 85.4258 35.0481C85.8479 34.977 86.2824 34.8698 86.7106 34.6489L85.2578 31.8315C85.239 31.8413 85.1635 31.8777 84.9009 31.9218C84.623 31.9686 84.255 32.0061 83.6612 32.0655L83.9766 35.2198ZM80.9339 35.6815C80.9212 35.691 81.0311 35.6031 81.5866 35.5029C82.1271 35.4057 82.8661 35.3307 83.9766 35.2198L83.6612 32.0655C82.6041 32.1712 81.7174 32.2589 81.0253 32.3833C80.3485 32.5051 79.6189 32.6979 79.0117 33.161L80.9339 35.6815ZM80.5274 36.6628C80.4766 36.2864 80.6317 35.9118 80.9339 35.6815L79.0117 33.161C77.8037 34.0821 77.1832 35.5806 77.3858 37.086L80.5274 36.6628ZM82.3524 39.1408C81.6455 38.2773 81.1761 37.7015 80.8628 37.2506C80.5406 36.7872 80.5252 36.6472 80.5274 36.6628L77.3858 37.086C77.4878 37.8428 77.8674 38.495 78.2599 39.0597C78.6611 39.6372 79.2261 40.3258 79.8989 41.1481L82.3524 39.1408ZM83.8815 41.4772C83.7349 41.0184 83.5038 40.6354 83.2555 40.2867C83.0162 39.9512 82.7034 39.5701 82.3524 39.1408L79.8989 41.1481C80.2767 41.6098 80.5102 41.8967 80.6737 42.1263C80.8282 42.3429 80.8557 42.4221 80.8623 42.4422L83.8815 41.4772ZM83.7336 44.445C84.1404 43.5062 84.193 42.4517 83.8815 41.4772L80.8623 42.4422C80.94 42.686 80.927 42.9496 80.8253 43.1842L83.7336 44.445ZM81.9794 46.6174C82.3714 46.2254 82.7206 45.8772 82.9921 45.5671C83.2737 45.2451 83.5418 44.8869 83.7336 44.445L80.8253 43.1842C80.8169 43.2037 80.7815 43.2798 80.6063 43.48C80.4206 43.6921 80.1597 43.9542 79.7381 44.376L81.9794 46.6174ZM79.6189 48.9778L81.9794 46.6174L79.7381 44.376L77.3776 46.7365L79.6189 48.9778ZM77.4455 50.7326C77.8877 50.541 78.2461 50.2727 78.5681 49.9908C78.8785 49.7195 79.2267 49.3701 79.6189 48.9778L77.3776 46.7365C76.9555 47.1583 76.6935 47.4196 76.4811 47.605C76.2809 47.7804 76.2048 47.8155 76.1852 47.824L77.4455 50.7326ZM74.4791 50.8805C75.4533 51.1917 76.5072 51.1391 77.4455 50.7326L76.1852 47.824C75.9507 47.9257 75.687 47.9389 75.4435 47.861L74.4791 50.8805ZM72.1416 49.3508C72.5709 49.7018 72.9523 50.0151 73.288 50.2542C73.6367 50.5025 74.02 50.7339 74.4791 50.8805L75.4435 47.861C75.4234 47.8546 75.3442 47.8269 75.1273 47.6726C74.8978 47.5091 74.6109 47.2751 74.1492 46.8974L72.1416 49.3508ZM69.6628 47.5252C69.6472 47.5231 69.7872 47.5384 70.2508 47.8607C70.702 48.1743 71.2776 48.6439 72.1416 49.3508L74.1492 46.8974C73.3266 46.2246 72.6374 45.6593 72.06 45.2578C71.495 44.8652 70.8425 44.4857 70.0855 44.3837L69.6628 47.5252ZM68.6818 47.9315C68.9121 47.6298 69.2867 47.4748 69.6628 47.5252L70.0855 44.3837C68.5806 44.1814 67.0826 44.8018 66.1618 46.009L68.6818 47.9315ZM68.2198 50.9758C68.3307 49.8651 68.406 49.1255 68.5032 48.5848C68.6033 48.029 68.6915 47.9191 68.6818 47.9315L66.1618 46.009C65.6985 46.6163 65.5054 47.3461 65.3836 48.0234C65.2589 48.7158 65.1715 49.6028 65.0655 50.6604L68.2198 50.9758ZM67.6484 53.7114C67.8695 53.2829 67.977 52.8481 68.0481 52.426C68.1162 52.0192 68.1646 51.5279 68.2198 50.9758L65.0655 50.6604C65.0064 51.2545 64.9686 51.6227 64.9218 51.9009C64.8777 52.1635 64.8413 52.239 64.8315 52.258L67.6484 53.7114ZM65.447 55.7039C66.3977 55.3277 67.1798 54.6198 67.6484 53.7114L64.8315 52.258C64.7142 52.4852 64.5188 52.6622 64.281 52.7562L65.447 55.7039ZM62.6684 56C63.2231 56 63.7168 56.0008 64.1281 55.9733C64.5555 55.9448 64.9987 55.8811 65.447 55.7039L64.281 52.7562C64.2612 52.7639 64.1825 52.7929 63.917 52.8106C63.6354 52.8294 63.2654 52.8302 62.6684 52.8302V56ZM59.3311 56H62.6684V52.8302H59.3311V56ZM56.5535 55.7039C57.0018 55.8811 57.4448 55.9448 57.8719 55.9733C58.2832 56.0008 58.7766 56 59.3311 56V52.8302C58.7344 52.8302 58.3643 52.8294 58.083 52.8106C57.8175 52.7929 57.7388 52.7639 57.719 52.7562L56.5535 55.7039ZM54.3513 53.7109C54.8201 54.6198 55.6025 55.328 56.5535 55.7039L57.719 52.7562C57.4812 52.6622 57.2858 52.4852 57.1685 52.258L54.3513 53.7109ZM53.7803 50.9766C53.8355 51.5284 53.8838 52.0195 53.952 52.426C54.0229 52.8481 54.1304 53.2827 54.3513 53.7109L57.1685 52.258C57.1587 52.239 57.1223 52.1635 57.0782 51.9012C57.0314 51.623 56.9939 51.2548 56.9345 50.661L53.7803 50.9766ZM53.3182 47.9326C53.3087 47.9201 53.3968 48.03 53.4968 48.5858C53.5941 49.1263 53.6692 49.8656 53.7803 50.9766L56.9345 50.661C56.8285 49.6036 56.7411 48.7166 56.6164 48.0242C56.4946 47.3472 56.3015 46.6174 55.8382 46.0101L53.3182 47.9326ZM52.3373 47.5263C52.7135 47.4758 53.0879 47.6309 53.3182 47.9326L55.8382 46.0101C54.9174 44.8029 53.4196 44.1824 51.9148 44.3848L52.3373 47.5263ZM49.8581 49.3518C50.7221 48.645 51.2981 48.1753 51.7492 47.8618C52.2129 47.5395 52.3528 47.5242 52.3373 47.5263L51.9148 44.3848C51.1577 44.4867 50.5052 44.8663 49.9402 45.2588C49.3626 45.6603 48.6736 46.2256 47.8509 46.8987L49.8581 49.3518ZM47.5208 50.8818C47.9799 50.7352 48.3632 50.5038 48.7118 50.2555C49.0475 50.0162 49.4289 49.7032 49.8581 49.3518L47.8509 46.8987C47.3891 47.2764 47.1021 47.5102 46.8725 47.6737C46.6558 47.8282 46.5765 47.8557 46.5563 47.8623L47.5208 50.8818ZM44.5544 50.7339C45.4928 51.1404 46.5467 51.193 47.5208 50.8818L46.5563 47.8623C46.3127 47.94 46.0492 47.927 45.8146 47.8253L44.5544 50.7339ZM42.3809 48.9791C42.7731 49.3711 43.1214 49.7206 43.4317 49.9921C43.7539 50.274 44.1122 50.5421 44.5544 50.7339L45.8146 47.8253C45.7951 47.8169 45.719 47.7815 45.5187 47.6063C45.3065 47.4206 45.0443 47.1597 44.6223 46.7375L42.3809 48.9791ZM40.0209 46.6189L42.3809 48.9791L44.6223 46.7375L42.2623 44.3776L40.0209 46.6189ZM38.2661 44.4455C38.4577 44.8877 38.726 45.2461 39.0078 45.5681C39.2793 45.8785 39.6287 46.2269 40.0209 46.6189L42.2623 44.3776C41.8403 43.9558 41.5792 43.6935 41.3936 43.4811C41.2184 43.2809 41.1831 43.2048 41.1746 43.1852L38.2661 44.4455ZM38.1182 41.4791C37.807 42.4533 37.8595 43.5072 38.2661 44.4455L41.1746 43.1852C41.073 42.9507 41.0599 42.6873 41.1376 42.4438L38.1182 41.4791ZM39.648 39.1419C39.2968 39.5709 38.9837 39.9523 38.7445 40.288C38.4961 40.6367 38.2648 41.02 38.1182 41.4791L41.1376 42.4438C41.1441 42.4234 41.1717 42.3442 41.3261 42.1273C41.4897 41.8978 41.7234 41.6109 42.1013 41.1489L39.648 39.1419ZM41.4735 36.6628C41.4756 36.6472 41.4603 36.787 41.138 37.2508C40.8246 37.7017 40.3549 38.2778 39.648 39.1419L42.1013 41.1489C42.7743 40.3263 43.3396 39.6374 43.741 39.0597C44.1336 38.4947 44.5132 37.8423 44.615 37.0852L41.4735 36.6628ZM41.0672 35.6818C41.369 35.9121 41.5241 36.2864 41.4735 36.6628L44.615 37.0852C44.8175 35.5803 44.197 34.0826 42.9898 33.1615L41.0672 35.6818ZM38.0234 35.2198C39.1342 35.3307 39.8736 35.406 40.4142 35.5032C40.9699 35.6031 41.0796 35.6913 41.0672 35.6818L42.9898 33.1615C42.3825 32.6982 41.6527 32.5054 40.9756 32.3833C40.2833 32.2589 39.3964 32.1715 38.3388 32.0655L38.0234 35.2198ZM35.2891 34.6487C35.7174 34.8698 36.1519 34.977 36.5741 35.0481C36.9806 35.1162 37.4716 35.1646 38.0234 35.2198L38.3388 32.0655C37.7451 32.0061 37.377 31.9686 37.0989 31.9218C36.8365 31.8777 36.761 31.8413 36.7421 31.8315L35.2891 34.6487ZM33.2961 32.4465C33.6721 33.3974 34.3802 34.1798 35.2891 34.6487L36.7421 31.8315C36.5148 31.7142 36.3378 31.5188 36.2438 31.281L33.2961 32.4465ZM33 29.6689C33 30.2234 32.9992 30.7168 33.0267 31.1281C33.0552 31.5552 33.1188 31.9982 33.2961 32.4465L36.2438 31.281C36.236 31.2612 36.2072 31.1825 36.1894 30.9168C36.1706 30.6357 36.1698 30.2656 36.1698 29.6689H33ZM33 26.3314V29.6689H36.1698V26.3314H33ZM33.2962 23.5533C33.1189 24.0015 33.0552 24.4445 33.0267 24.8719C32.9992 25.2832 33 25.7766 33 26.3314H36.1698C36.1698 25.7346 36.1706 25.3646 36.1894 25.083C36.2072 24.8175 36.236 24.7388 36.2439 24.719L33.2962 23.5533ZM35.2887 21.3515C34.3801 21.8202 33.6722 22.6024 33.2962 23.5533L36.2439 24.719C36.3379 24.4812 36.5148 24.2858 36.742 24.1685L35.2887 21.3515ZM38.0238 20.7803C37.4718 20.8355 36.9807 20.8838 36.574 20.9521C36.1517 21.023 35.7171 21.1304 35.2887 21.3515L36.742 24.1685C36.7609 24.1587 36.8365 24.1223 37.0989 24.0782C37.377 24.0314 37.7453 23.9936 38.3392 23.9345L38.0238 20.7803ZM41.0683 20.318C41.0808 20.3085 40.971 20.3967 40.4151 20.4967C39.8744 20.5941 39.1348 20.6692 38.0238 20.7803L38.3392 23.9345C39.397 23.8285 40.2841 23.7411 40.9766 23.6164C41.6539 23.4946 42.3839 23.3015 42.9912 22.838L41.0683 20.318ZM41.4745 19.3374C41.5251 19.7135 41.37 20.0878 41.0683 20.318L42.9912 22.838C44.198 21.9171 44.8182 20.4197 44.6161 18.9152L41.4745 19.3374ZM39.6484 16.8575C40.3555 17.7218 40.8254 18.2979 41.139 18.7491C41.4613 19.2129 41.4766 19.3529 41.4745 19.3374L44.6161 18.9152C44.5143 18.1579 44.1347 17.5053 43.7419 16.9401C43.3404 16.3623 42.775 15.6731 42.1017 14.8502L39.6484 16.8575ZM38.1181 14.5192C38.2648 14.9785 38.4961 15.3619 38.7446 15.7107C38.9839 16.0466 39.2971 16.4281 39.6484 16.8575L42.1017 14.8502C41.7237 14.3882 41.4899 14.1011 41.3262 13.8714C41.1717 13.6546 41.1442 13.5753 41.1377 13.555L38.1181 14.5192ZM38.266 11.5539C37.8597 12.4919 37.8072 13.5454 38.1181 14.5192L41.1377 13.555C41.06 13.3116 41.0731 13.0482 41.1747 12.8137L38.266 11.5539ZM40.0213 9.37953C39.629 9.77184 39.2794 10.1203 39.0079 10.4307C38.726 10.753 38.4576 11.1114 38.266 11.5539L41.1747 12.8137C41.1832 12.7942 41.2185 12.718 41.3937 12.5177C41.5794 12.3054 41.8406 12.043 42.2627 11.6209L40.0213 9.37953ZM42.381 7.01981L40.0213 9.37953L42.2627 11.6209L44.6224 9.26121L42.381 7.01981ZM44.5546 5.26501C44.1123 5.45665 43.754 5.72489 43.4318 6.00674C43.1215 6.27821 42.7732 6.62765 42.381 7.01981L44.6224 9.26121C45.0444 8.83929 45.3066 8.57817 45.5189 8.39253C45.7191 8.21731 45.7953 8.182 45.8148 8.17354L44.5546 5.26501ZM47.5209 5.11705C46.5468 4.80588 45.4929 4.85845 44.5546 5.26501L45.8148 8.17354C46.0493 8.0719 46.3128 8.05877 46.5564 8.13656L47.5209 5.11705ZM49.8585 6.64707C49.4292 6.2958 49.0478 5.9827 48.712 5.74346C48.3633 5.49506 47.9801 5.26374 47.5209 5.11705L46.5564 8.13656C46.5766 8.14304 46.6559 8.17059 46.8727 8.32506C47.1023 8.48868 47.3893 8.72245 47.8512 9.10037L49.8585 6.64707ZM52.3372 8.47246C52.3528 8.47457 52.2129 8.45925 51.7492 8.13699C51.2982 7.82355 50.7224 7.35388 49.8585 6.64707L47.8512 9.10037C48.6737 9.77332 49.3626 10.3385 49.9402 10.7399C50.505 11.1325 51.1573 11.512 51.9142 11.6139L52.3372 8.47246ZM53.3184 8.06606C53.0882 8.36799 52.7136 8.52315 52.3372 8.47246L51.9142 11.6139C53.4195 11.8167 54.9178 11.196 55.839 9.98824L53.3184 8.06606ZM53.7804 5.0231C53.6693 6.13356 53.5942 6.87273 53.497 7.41319C53.397 7.96875 53.3089 8.0785 53.3184 8.06606L55.839 9.98824C56.3021 9.38103 56.4949 8.65147 56.6167 7.97451C56.7411 7.28241 56.8288 6.39578 56.9345 5.33852L53.7804 5.0231ZM54.3511 2.28948C54.1303 2.71772 54.0229 3.15209 53.952 3.57412C53.8838 3.98057 53.8355 4.47144 53.7804 5.0231L56.9345 5.33852C56.9939 4.74497 57.0314 4.3769 57.0782 4.09896C57.122 3.83658 57.1587 3.76109 57.1685 3.74218L54.3511 2.28948ZM56.5541 0.295878C55.6026 0.671923 54.8199 1.38024 54.3511 2.28948L57.1685 3.74218C57.2855 3.51487 57.4812 3.33779 57.7192 3.24378L56.5541 0.295878ZM59.3308 2.5972e-06C58.7764 2.5972e-06 58.2832 -0.000816324 57.8719 0.026629C57.4451 0.0551573 57.0021 0.118791 56.5541 0.295878L57.7192 3.24378C57.7388 3.23596 57.8178 3.20714 58.0832 3.18941C58.3643 3.17063 58.7344 3.16981 59.3308 3.16981V2.5972e-06ZM62.6689 2.5972e-06H59.3308V3.16981H62.6689V2.5972e-06ZM65.4465 0.296063C64.9982 0.118844 64.5552 0.0551837 64.1281 0.0266554C63.7168 -0.000816287 63.2234 2.5972e-06 62.6689 2.5972e-06V3.16981C63.2656 3.16981 63.6357 3.17063 63.917 3.18941C64.1825 3.20716 64.2612 3.23601 64.281 3.24383L65.4465 0.296063ZM67.6487 2.28908C67.1798 1.38016 66.3974 0.672082 65.4465 0.296063L64.281 3.24383C64.5188 3.33784 64.7142 3.51485 64.8315 3.74207L67.6487 2.28908ZM69.9811 28C69.9811 32.9602 65.9602 36.9811 61 36.9811V40.1509C67.7108 40.1509 73.1509 34.7108 73.1509 28H69.9811ZM61 19.0189C65.9602 19.0189 69.9811 23.0398 69.9811 28H73.1509C73.1509 21.2892 67.7108 15.8491 61 15.8491V19.0189ZM52.0189 28C52.0189 23.0398 56.0398 19.0189 61 19.0189V15.8491C54.2892 15.8491 48.8491 21.2892 48.8491 28H52.0189ZM61 36.9811C56.0398 36.9811 52.0189 32.9602 52.0189 28H48.8491C48.8491 34.7108 54.2892 40.1509 61 40.1509V36.9811Z" fill="#1B8CFF"/>
</svg>
