<svg width="138" height="104" viewBox="0 0 138 104" fill="none" xmlns="http://www.w3.org/2000/svg">
<circle cx="78" cy="52" r="50.5" fill="white" stroke="#1B8CFF" stroke-width="3"/>
<path d="M102.5 52C102.5 66.177 99.6236 78.9378 95.0431 88.0987C90.4178 97.3494 84.3055 102.5 78 102.5C71.6945 102.5 65.5822 97.3494 60.9569 88.0987C56.3764 78.9378 53.5 66.177 53.5 52C53.5 37.823 56.3764 25.0622 60.9569 15.9013C65.5822 6.65058 71.6945 1.5 78 1.5C84.3055 1.5 90.4178 6.65058 95.0431 15.9013C99.6236 25.0622 102.5 37.823 102.5 52Z" stroke="#1B8CFF" stroke-width="3"/>
<path d="M128.5 55.5C128.5 57.6094 127.365 59.7985 124.918 61.9679C122.473 64.1358 118.85 66.1566 114.243 67.8841C105.041 71.3349 92.2271 73.5 78 73.5C63.7728 73.5 50.9594 71.3349 41.7571 67.8841C37.1505 66.1566 33.5267 64.1358 31.0815 61.9679C28.6346 59.7985 27.5 57.6094 27.5 55.5C27.5 53.3906 28.6346 51.2015 31.0815 49.0321C33.5267 46.8642 37.1505 44.8434 41.7571 43.1159C50.9594 39.6651 63.7728 37.5 78 37.5C92.2271 37.5 105.041 39.6651 114.243 43.1159C118.85 44.8434 122.473 46.8642 124.918 49.0321C127.365 51.2015 128.5 53.3906 128.5 55.5Z" stroke="#1B8CFF" stroke-width="3"/>
<circle cx="7" cy="25" r="6.5" fill="white" stroke="#1B8CFF"/>
<circle cx="134" cy="98" r="3.5" fill="white" stroke="#1B8CFF"/>
<circle cx="134" cy="18" r="3.5" fill="white" stroke="#1B8CFF"/>
<circle cx="32.5" cy="91.5" r="2" fill="white" stroke="#1B8CFF"/>
</svg>
