<svg width="138" height="80" viewBox="0 0 138 80" fill="none" xmlns="http://www.w3.org/2000/svg">
<path d="M23.2283 18.5917V67.2155H107.293V18.5917C107.293 13.0688 102.815 8.59167 97.2926 8.59167H33.2283C27.7054 8.59167 23.2283 13.0688 23.2283 18.5917Z" fill="#B4D6F8" stroke="#1B8CFF" stroke-width="3"/>
<path d="M113.223 67.2153H17.9904C15.6647 67.2153 14.2235 69.7472 15.4109 71.7469L17.9742 76.0642H113.653L115.906 71.557C116.904 69.5623 115.453 67.2153 113.223 67.2153Z" stroke="#1B8CFF" stroke-width="3"/>
<path d="M130.244 79.5C131.073 79.5 131.744 78.8284 131.744 78C131.744 77.1716 131.073 76.5 130.244 76.5V79.5ZM0 79.5H130.244V76.5H0V79.5Z" fill="#D9EAFB"/>
<path d="M28.4824 24.0771H91.8908M91.8908 30.4373H28.4824M28.4824 36.7974H71.0676" stroke="#D9EAFB" stroke-width="3"/>
<path d="M111 44.5484C109.161 44.5472 107.344 44.9497 105.684 45.7276C104.346 46.3546 103.136 47.2132 102.112 48.2604C99.4403 47.2929 96.9552 45.8961 94.7603 44.1293C95.1687 42.7523 95.3226 41.3113 95.2108 39.8747C95.0704 38.0709 94.5152 36.3232 93.5883 34.7612C92.6629 33.1968 91.3897 31.8592 89.8657 30.8456C88.6416 30.0314 87.2804 29.4426 85.8492 29.1037C85.3836 26.3884 85.3836 23.6167 85.8492 20.9014C87.2807 20.5622 88.6422 19.9731 89.8665 19.1583C91.39 18.1444 92.6629 16.8067 93.5879 15.2422C94.5146 13.6803 95.0698 11.9328 95.2102 10.1293C95.3219 8.69315 95.1683 7.25085 94.76 5.87323C96.9548 4.10559 99.4401 2.70792 102.113 1.73972C103.136 2.7869 104.346 3.64538 105.684 4.27244C107.344 5.05036 109.161 5.45288 111 5.45159M111 44.5484C112.839 44.5468 114.655 44.9488 116.316 45.7262C117.654 46.3529 118.864 47.211 119.888 48.2579C122.56 47.2904 125.045 45.8935 127.24 44.1267C126.832 42.7496 126.678 41.3087 126.789 39.8721C126.93 38.0677 127.485 36.3194 128.413 34.757C130.17 31.7941 133.014 29.8475 136.151 29.1003C136.616 26.3853 136.616 23.6139 136.151 20.8988C134.72 20.5596 133.358 19.9704 132.134 19.1557C130.61 18.1416 129.337 16.8034 128.412 15.2384C127.485 13.6769 126.93 11.9297 126.79 10.1266C126.678 8.69043 126.832 7.24989 127.24 5.87317C125.045 4.10556 122.56 2.70791 119.888 1.73972C118.864 2.7869 117.655 3.64538 116.316 4.27244C114.656 5.05036 112.839 5.45288 111 5.45159M111 44.5484C111 44.5484 111.001 44.5484 111.001 44.5484L111 46.0484L110.999 44.5484C110.999 44.5484 110.999 44.5484 111 44.5484ZM111 5.45159C111 5.45159 110.999 5.45159 110.999 5.45159L111 3.95159L111.001 5.45159C111.001 5.45159 111.001 5.45159 111 5.45159ZM115.777 33.1458C116.876 32.5368 117.843 31.7205 118.621 30.7421C119.4 29.7636 119.973 28.6426 120.308 27.443C120.642 26.2434 120.729 24.9904 120.565 23.7569C120.4 22.5234 119.987 21.3355 119.351 20.2615C118.715 19.1877 117.868 18.2497 116.862 17.5001C115.857 16.7505 114.711 16.2037 113.491 15.8895C112.271 15.5752 111.001 15.4993 109.751 15.6657C108.502 15.8322 107.297 16.238 106.207 16.8612C104.022 18.1091 102.422 20.1552 101.769 22.5624C101.116 24.9707 101.468 27.5318 102.742 29.6835C104.016 31.8337 106.104 33.3948 108.541 34.0395C110.977 34.6841 113.577 34.3644 115.777 33.1458Z" fill="white" stroke="#1B8CFF" stroke-width="3"/>
<path d="M19.6335 72.1929H88.7654M97.0612 72.1929H111.164" stroke="#4A89F2"/>
</svg>
