<svg width="109" height="89" viewBox="0 0 109 89" fill="none" xmlns="http://www.w3.org/2000/svg">
<path d="M99.2512 2H10C5.58172 2 2 5.58172 2 10V79C2 83.4183 5.58172 87 10 87H99.2512C103.67 87 107.251 83.4183 107.251 79V10C107.251 5.58172 103.67 2 99.2512 2Z" fill="white" stroke="#1B8CFF" stroke-width="3"/>
<path d="M11.7812 73.8436V79.423M19.9093 73.8436V79.423M28.5195 73.8436V79.423M36.9919 73.8436V79.423M45.8088 73.8436V79.423M54.0746 73.8436V79.423M62.9603 73.8436V79.423M71.5706 73.8436V79.423M80.5941 73.8436V79.423M88.7221 73.8436V79.423M97.3323 73.8436V79.423" stroke="#1B8CFF" stroke-width="2" stroke-linecap="round" stroke-linejoin="round"/>
<path d="M9.57715 45.671H24.5245M30.3794 45.671H38.783M9.57715 52.9036H31.757M9.57715 60.2051H35.1323" stroke="#1B8CFF" stroke-width="3" stroke-linecap="round"/>
<path d="M60.5493 13.9854V35.9587M78.4586 13.9854C78.4586 14.9222 78.4586 20.5751 78.4586 23.2844M78.4586 40.5049V63.7869M60.5493 53.8679V66.06M94.7835 13.9854V40.5049M94.7835 57.9319V63.7869" stroke="#1B8CFF" stroke-width="3" stroke-linecap="round"/>
<path d="M23.4912 34.581C16.2195 34.581 10.0687 34.581 9.57715 34.581V32.9968C9.57715 23.8666 16.9786 16.4651 26.1088 16.4651V16.4651C35.2389 16.4651 42.6404 23.8666 42.6404 32.9968V34.581C37.5872 34.581 30.0792 34.581 23.4912 34.581ZM23.4912 34.581L33.2036 25.4886" stroke="#1B8CFF" stroke-width="3" stroke-linecap="round"/>
<circle cx="60.4804" cy="46.9108" r="5.31929" fill="white" stroke="#1B8CFF" stroke-width="3"/>
<circle cx="77.5632" cy="34.7877" r="5.31929" fill="white" stroke="#1B8CFF" stroke-width="3"/>
<circle cx="94.7834" cy="51.3193" r="5.31929" fill="white" stroke="#1B8CFF" stroke-width="3"/>
</svg>
