<svg width="31" height="34" viewBox="0 0 31 34" fill="none" xmlns="http://www.w3.org/2000/svg">
<path d="M29.2778 34H5.16667C3.79638 34 2.48222 33.4627 1.51328 32.5062C0.544344 31.5498 0 30.2526 0 28.9V5.1C0 3.7474 0.544344 2.45019 1.51328 1.49376C2.48222 0.53732 3.79638 0 5.16667 0H29.2778C29.7345 0 30.1726 0.179107 30.4956 0.497918C30.8186 0.81673 31 1.24913 31 1.7V32.3C31 32.7509 30.8186 33.1833 30.4956 33.5021C30.1726 33.8209 29.7345 34 29.2778 34ZM27.5556 30.6V27.2H5.16667C4.7099 27.2 4.27185 27.3791 3.94887 27.6979C3.62589 28.0167 3.44444 28.4491 3.44444 28.9C3.44444 29.3509 3.62589 29.7833 3.94887 30.1021C4.27185 30.4209 4.7099 30.6 5.16667 30.6H27.5556ZM15.5 13.6C16.4135 13.6 17.2896 13.2418 17.9356 12.6042C18.5815 11.9665 18.9444 11.1017 18.9444 10.2C18.9444 9.29826 18.5815 8.43346 17.9356 7.79584C17.2896 7.15821 16.4135 6.8 15.5 6.8C14.5865 6.8 13.7104 7.15821 13.0644 7.79584C12.4185 8.43346 12.0556 9.29826 12.0556 10.2C12.0556 11.1017 12.4185 11.9665 13.0644 12.6042C13.7104 13.2418 14.5865 13.6 15.5 13.6ZM10.3333 20.4H20.6667C20.6667 19.0474 20.1223 17.7502 19.1534 16.7938C18.1844 15.8373 16.8703 15.3 15.5 15.3C14.1297 15.3 12.8156 15.8373 11.8466 16.7938C10.8777 17.7502 10.3333 19.0474 10.3333 20.4Z" fill="#4CD7AB"/>
</svg>
