<svg width="35" height="35" viewBox="0 0 35 35" fill="none" xmlns="http://www.w3.org/2000/svg">
<path d="M20.9167 7.24996H24.3334V10.6666H32.8751C33.3282 10.6666 33.7627 10.8466 34.0831 11.167C34.4034 11.4874 34.5834 11.9219 34.5834 12.375V25.1875L24.3334 19.2083L24.3949 32.9809L28.1925 29.308L31.2368 34.5833H12.3751C11.922 34.5833 11.4875 34.4033 11.1671 34.0829C10.8467 33.7626 10.6667 33.328 10.6667 32.875V24.3333H7.25008V20.9166H10.6667V12.375C10.6667 11.9219 10.8467 11.4874 11.1671 11.167C11.4875 10.8466 11.922 10.6666 12.3751 10.6666H20.9167V7.24996ZM34.5834 26.619V32.875C34.5836 33.053 34.5559 33.2299 34.5014 33.3994L31.1531 27.6013L34.5834 26.619ZM3.83341 20.9166V24.3333H0.416748V20.9166H3.83341ZM3.83341 14.0833V17.5H0.416748V14.0833H3.83341ZM3.83341 7.24996V10.6666H0.416748V7.24996H3.83341ZM3.83341 0.416626V3.83329H0.416748V0.416626H3.83341ZM10.6667 0.416626V3.83329H7.25008V0.416626H10.6667ZM17.5001 0.416626V3.83329H14.0834V0.416626H17.5001ZM24.3334 0.416626V3.83329H20.9167V0.416626H24.3334Z" fill="#9747FF"/>
</svg>
