<svg aria-hidden="true" style="position: absolute; width: 0; height: 0; overflow: hidden;" version="1.1" xmlns="http://www.w3.org/2000/svg" xmlns:xlink="http://www.w3.org/1999/xlink">
<defs>
<symbol id="icon-arrow-down" viewBox="0 0 5 32">
<path  d="M2.14 31.924c0.101 0.101 0.264 0.101 0.365 0l1.642-1.642c0.101-0.101 0.101-0.264 0-0.365s-0.264-0.101-0.365 0l-1.46 1.46-1.46-1.46c-0.101-0.101-0.264-0.101-0.365 0s-0.101 0.264 0 0.365l1.642 1.642zM2.581 31.742v-31.484h-0.516v31.484h0.516z"></path>
</symbol>
<symbol id="icon-arrow-up" viewBox="0 0 5 32">
<path d="M2.505 0.334c-0.101-0.101-0.264-0.101-0.365 0l-1.642 1.642c-0.101 0.101-0.101 0.264 0 0.365s0.264 0.101 0.365 0l1.46-1.46 1.46 1.46c0.101 0.101 0.264 0.101 0.365 0s0.101-0.264 0-0.365l-1.642-1.642zM2.581 32v-31.484h-0.516v31.484h0.516z"></path>
</symbol>
 
<symbol id="icon-long-arrow" viewBox="0 0 8 40"  xmlns="http://www.w3.org/2000/svg">
<path d="M4.35355 0.646447C4.15829 0.451184 3.84171 0.451184 3.64645 0.646447L0.464466 3.82843C0.269204 4.02369 0.269204 4.34027 0.464466 4.53553C0.659728 4.7308 0.976311 4.7308 1.17157 4.53553L4 1.70711L6.82843 4.53553C7.02369 4.7308 7.34027 4.7308 7.53553 4.53553C7.7308 4.34027 7.7308 4.02369 7.53553 3.82843L4.35355 0.646447ZM4.5 40V1H3.5V40H4.5Z"/>
</symbol>
</svg>
