<svg aria-hidden="true" style="position: absolute; width: 0; height: 0; overflow: hidden;" version="1.1" xmlns="http://www.w3.org/2000/svg" xmlns:xlink="http://www.w3.org/1999/xlink">
<defs>
<symbol id="icon-arrow-down" viewBox="0 0 5 32">
<path  d="M2.14 31.924c0.101 0.101 0.264 0.101 0.365 0l1.642-1.642c0.101-0.101 0.101-0.264 0-0.365s-0.264-0.101-0.365 0l-1.46 1.46-1.46-1.46c-0.101-0.101-0.264-0.101-0.365 0s-0.101 0.264 0 0.365l1.642 1.642zM2.581 31.742v-31.484h-0.516v31.484h0.516z"></path>
</symbol>
<symbol id="icon-arrow-up" viewBox="0 0 5 32">
<path d="M2.505 0.334c-0.101-0.101-0.264-0.101-0.365 0l-1.642 1.642c-0.101 0.101-0.101 0.264 0 0.365s0.264 0.101 0.365 0l1.46-1.46 1.46 1.46c0.101 0.101 0.264 0.101 0.365 0s0.101-0.264 0-0.365l-1.642-1.642zM2.581 32v-31.484h-0.516v31.484h0.516z"></path>
</symbol>
<symbol id="icon-automated" viewBox="0 0 34 32">
<path fill="#42a5f5" style="fill: var(--color2, #42a5f5)" d="M5.65 3.448c1.739-1.549 3.782-2.723 6-3.448 0.634 0.79 1.439 1.427 2.355 1.865s1.92 0.665 2.936 0.664c1.017 0.001 2.020-0.226 2.936-0.664s1.721-1.075 2.355-1.865c2.218 0.726 4.261 1.9 6 3.448-0.37 0.94-0.522 1.951-0.446 2.958s0.381 1.983 0.889 2.858c0.507 0.876 1.207 1.626 2.047 2.196s1.798 0.944 2.803 1.095c0.475 2.271 0.475 4.615 0 6.887-1.965 0.3-3.777 1.448-4.849 3.292-0.509 0.874-0.813 1.851-0.89 2.858s0.076 2.019 0.446 2.959c-1.739 1.548-3.782 2.721-6 3.447-0.634-0.789-1.44-1.427-2.356-1.864s-1.92-0.664-2.936-0.663c-1.017-0.001-2.020 0.226-2.936 0.664s-1.721 1.075-2.355 1.865c-2.218-0.725-4.26-1.899-6-3.447 0.37-0.941 0.523-1.952 0.446-2.959s-0.381-1.984-0.89-2.858c-0.508-0.875-1.207-1.626-2.047-2.195s-1.798-0.944-2.803-1.095c-0.475-2.272-0.475-4.617 0-6.888 1.005-0.151 1.963-0.526 2.803-1.095s1.539-1.321 2.047-2.196c0.509-0.874 0.813-1.851 0.889-2.858s-0.075-2.020-0.446-2.96zM19.482 20.374c0.583-0.329 1.094-0.77 1.504-1.296s0.712-1.128 0.888-1.771 0.222-1.314 0.135-1.975c-0.086-0.661-0.303-1.298-0.639-1.875s-0.782-1.082-1.314-1.487c-0.532-0.405-1.14-0.701-1.788-0.871s-1.323-0.211-1.987-0.121c-0.664 0.090-1.303 0.31-1.882 0.647-1.158 0.675-2 1.777-2.343 3.067s-0.159 2.662 0.512 3.817c0.671 1.155 1.774 2 3.069 2.349s2.677 0.176 3.843-0.484z"></path>
</symbol>
<symbol id="icon-long-arrow" viewBox="0 0 184 32">
<path fill="#4a89f2" style="fill: var(--color3, #4a89f2)" d="M183.414 17.414c0.781-0.781 0.781-2.047 0-2.828l-12.728-12.728c-0.781-0.781-2.048-0.781-2.828 0s-0.781 2.047 0 2.828l11.314 11.314-11.314 11.314c-0.781 0.781-0.781 2.047 0 2.828s2.047 0.781 2.828 0l12.728-12.728zM0 18h182v-4h-182v4z"></path>
</symbol>
<symbol id="icon-manual" viewBox="0 0 29 32">
<path fill="#4cd7ab" style="fill: var(--color4, #4cd7ab)" d="M27.556 32h-22.693c-1.29 0-2.527-0.506-3.438-1.406s-1.424-2.121-1.424-3.394v-22.4c0-1.273 0.512-2.494 1.424-3.394s2.149-1.406 3.438-1.406h22.693c0.43 0 0.842 0.169 1.146 0.469s0.475 0.707 0.475 1.131v28.8c0 0.424-0.171 0.831-0.475 1.131s-0.716 0.469-1.146 0.469zM25.935 28.8v-3.2h-21.072c-0.43 0-0.842 0.169-1.146 0.469s-0.475 0.707-0.475 1.131c0 0.424 0.171 0.831 0.475 1.131s0.716 0.469 1.146 0.469h21.072zM14.588 12.8c0.86 0 1.684-0.337 2.292-0.937s0.949-1.414 0.949-2.263c0-0.849-0.342-1.663-0.949-2.263s-1.433-0.937-2.292-0.937-1.684 0.337-2.292 0.937c-0.608 0.6-0.949 1.414-0.949 2.263s0.342 1.663 0.949 2.263c0.608 0.6 1.433 0.937 2.292 0.937zM9.725 19.2h9.726c0-1.273-0.512-2.494-1.424-3.394s-2.149-1.406-3.438-1.406-2.527 0.506-3.438 1.406c-0.912 0.9-1.424 2.121-1.424 3.394z"></path>
</symbol>
<symbol id="icon-semi-automated" viewBox="0 0 32 32">
<path fill="#9747ff" style="fill: var(--color5, #9747ff)" d="M19.124 6.629h3.124v3.124h7.81c0.414 0 0.812 0.165 1.104 0.457s0.457 0.69 0.457 1.104v11.714l-9.371-5.467 0.056 12.592 3.472-3.358 2.783 4.823h-17.245c-0.414 0-0.812-0.165-1.104-0.457s-0.457-0.69-0.457-1.104v-7.81h-3.124v-3.124h3.124v-7.809c0-0.414 0.165-0.812 0.457-1.104s0.69-0.457 1.104-0.457h7.809v-3.124zM31.619 24.337v5.72c0 0.163-0.025 0.324-0.075 0.479l-3.061-5.301 3.136-0.898zM3.505 19.124v3.124h-3.124v-3.124h3.124zM3.505 12.876v3.124h-3.124v-3.124h3.124zM3.505 6.629v3.124h-3.124v-3.124h3.124zM3.505 0.381v3.124h-3.124v-3.124h3.124zM9.752 0.381v3.124h-3.124v-3.124h3.124zM16 0.381v3.124h-3.124v-3.124h3.124zM22.248 0.381v3.124h-3.124v-3.124h3.124z"></path>
</symbol>
</defs>
</svg>
