<svg width="146" height="96" viewBox="0 0 146 96" fill="none" xmlns="http://www.w3.org/2000/svg">
<path d="M119.444 90.5489H32.1506C25.5232 90.5489 20.1506 85.1763 20.1506 78.5489V73.188C20.1506 66.5606 25.5232 61.188 32.1506 61.188H119.444" stroke="#1B8CFF" stroke-width="4" stroke-linecap="round"/>
<path d="M107.699 61.7224V76.1359M107.699 90.5495V76.1359M107.699 76.1359H45.2407" stroke="#1B8CFF" stroke-width="4" stroke-linecap="round"/>
<path d="M106.098 87.3461H32.8875C27.9169 87.3461 23.8875 83.3167 23.8875 78.3461V74.0002" stroke="#B4D6F8"/>
<path d="M40.97 31.2932V60.1202H98.6241V31.2932L90.0089 29.6978C76.6479 27.2235 62.9462 27.2235 49.5851 29.6978L40.97 31.2932Z" fill="#B4D6F8" stroke="#1B8CFF" stroke-width="4"/>
<path d="M40.9701 46.2406L21.2183 24.3534L69.2634 3L117.842 24.3534M117.842 24.3534L98.6243 43.0376M117.842 24.3534V39.8346" stroke="#1B8CFF" stroke-width="4"/>
<circle cx="117.842" cy="45.1731" r="4.90602" fill="#1B8CFF" stroke="#1B8CFF" stroke-width="3"/>
<path d="M43.1052 57.9849V33.2142L47.9097 32.3605L53.2481 31.5559V57.9849H43.1052Z" fill="#D9EAFB"/>
<path d="M2 93.752H144" stroke="#D9EAFB" stroke-width="3" stroke-linecap="round"/>
</svg>
