<svg width="176" height="90" viewBox="0 0 176 90" fill="none" xmlns="http://www.w3.org/2000/svg">
<path d="M2 74.0625H173.629" stroke="#D9EAFB" stroke-width="3" stroke-linecap="round"/>
<g clip-path="url(#clip0_65_791)">
<path d="M97.8766 20.6127C97.8851 20.4862 97.8937 20.3584 97.8937 20.2277C97.8937 19.9408 97.8297 19.7036 97.7658 19.5033C96.1608 8.37602 78.004 0 55.4383 0C32.874 0 14.7186 8.3746 13.1136 19.5005C13.0553 19.678 12.9829 19.9266 12.9829 20.2277C12.9829 20.3556 12.9914 20.4791 13 20.6027V20.7717C12.9914 20.8953 12.9829 21.0175 12.9829 21.141V68.859C12.9829 80.7135 31.6312 90 55.4383 90C79.2454 90 97.8937 80.7135 97.8937 68.859V21.1425C97.8937 21.0146 97.8851 20.8896 97.8766 20.7632V20.6127ZM55.4383 5.70428C74.524 5.70428 91.1014 12.5562 91.7349 20.6851C91.1028 28.814 74.5226 35.6659 55.4383 35.6659C36.3511 35.6659 19.7752 28.814 19.1446 20.6851C19.7738 12.5576 36.3525 5.70428 55.4383 5.70428ZM91.7888 68.859C91.7888 77.083 74.8024 84.2957 55.4369 84.2957C36.0713 84.2957 19.0863 77.0844 19.0863 68.859V63.6859C26.6044 69.9001 40.1563 73.6741 55.4383 73.6741C70.7202 73.6741 84.2721 69.9001 91.7903 63.6859V68.859H91.7888ZM91.7888 52.5359C91.7888 60.7599 74.8024 67.9726 55.4369 67.9726C36.0713 67.9726 19.0863 60.7599 19.0863 52.5359V47.029C26.6044 53.2432 40.1563 57.0172 55.4383 57.0172C70.7202 57.0172 84.2721 53.2432 91.7903 47.029V52.5359H91.7888ZM91.7888 35.879C91.7888 44.103 74.8024 51.3172 55.4369 51.3172C36.0713 51.3172 19.0863 44.103 19.0863 35.879V31.3806C26.6058 37.5934 40.1592 41.3702 55.4383 41.3702C70.7202 41.3702 84.2721 37.5934 91.7903 31.3806V35.879H91.7888Z" fill="#1B8CFF"/>
<path d="M91.7888 35.879C91.7888 44.103 74.8024 51.3172 55.4369 51.3172C36.0713 51.3172 19.0863 44.103 19.0863 35.879V31.3806C26.6058 37.5934 40.1592 41.3702 55.4383 41.3702C70.7202 41.3702 84.2721 37.5934 91.7903 31.3806V35.879H91.7888Z" fill="#B4D6F8"/>
<path d="M91.7888 52.5359C91.7888 60.7599 74.8024 67.9726 55.4369 67.9726C36.0713 67.9726 19.0863 60.7599 19.0863 52.5359V47.029C26.6044 53.2432 40.1563 57.0172 55.4383 57.0172C70.7202 57.0172 84.2721 53.2432 91.7903 47.029V52.5359H91.7888Z" fill="#B4D6F8"/>
<path d="M91.7888 68.859C91.7888 77.083 74.8024 84.2957 55.4369 84.2957C36.0713 84.2957 19.0863 77.0844 19.0863 68.859V63.6859C26.6044 69.9001 40.1563 73.6741 55.4383 73.6741C70.7202 73.6741 84.2721 69.9001 91.7903 63.6859V68.859H91.7888Z" fill="#B4D6F8"/>
<path d="M57.5746 14.0093C67.0954 14.3843 75.8663 16.8402 81.0351 20.5801C81.5479 20.9522 82.1444 21.1269 82.7325 21.1198C83.6003 21.1084 84.4525 20.7008 85.0022 19.9437C85.9198 18.6725 85.6343 16.8956 84.3659 15.978C78.2369 11.5407 68.5513 8.75391 57.8004 8.33348C56.228 8.25962 54.9113 9.49251 54.8488 11.0606C54.7849 12.6273 56.0065 13.9483 57.5746 14.0093Z" fill="#D9EAFB"/>
</g>
<g clip-path="url(#clip1_65_791)">
<path d="M158.73 39.9918C158.736 39.9075 158.741 39.8223 158.741 39.7352C158.741 39.5439 158.699 39.3857 158.656 39.2522C157.586 31.834 145.482 26.25 130.438 26.25C115.395 26.25 103.291 31.8331 102.221 39.2503C102.183 39.3687 102.134 39.5344 102.134 39.7352C102.134 39.8204 102.14 39.9028 102.146 39.9851V40.0978C102.14 40.1802 102.134 40.2616 102.134 40.344V72.156C102.134 80.059 114.566 86.25 130.438 86.25C146.309 86.25 158.741 80.059 158.741 72.156V40.345C158.741 40.2598 158.736 40.1764 158.73 40.0921V39.9918ZM130.438 30.0529C143.162 30.0529 154.213 34.6208 154.636 40.0401C154.214 45.4593 143.161 50.0273 130.438 50.0273C117.713 50.0273 106.662 45.4593 106.242 40.0401C106.662 34.6218 117.714 30.0529 130.438 30.0529ZM154.672 72.156C154.672 77.6387 143.347 82.4472 130.437 82.4472C117.527 82.4472 106.203 77.6396 106.203 72.156V68.7073C111.215 72.8501 120.25 75.366 130.438 75.366C140.626 75.366 149.66 72.8501 154.673 68.7073V72.156H154.672ZM154.672 61.2739C154.672 66.7566 143.347 71.5651 130.437 71.5651C117.527 71.5651 106.203 66.7566 106.203 61.2739V57.6027C111.215 61.7455 120.25 64.2615 130.438 64.2615C140.626 64.2615 149.66 61.7455 154.673 57.6027V61.2739H154.672ZM154.672 50.1693C154.672 55.652 143.347 60.4615 130.437 60.4615C117.527 60.4615 106.203 55.652 106.203 50.1693V47.1704C111.216 51.3123 120.252 53.8301 130.438 53.8301C140.626 53.8301 149.66 51.3123 154.673 47.1704V50.1693H154.672Z" fill="#1B8CFF"/>
<path d="M154.672 50.1693C154.672 55.652 143.347 60.4615 130.437 60.4615C117.527 60.4615 106.203 55.652 106.203 50.1693V47.1704C111.216 51.3123 120.252 53.8301 130.438 53.8301C140.626 53.8301 149.66 51.3123 154.673 47.1704V50.1693H154.672Z" fill="#B4D6F8"/>
<path d="M154.672 61.2739C154.672 66.7566 143.347 71.5651 130.437 71.5651C117.527 71.5651 106.203 66.7566 106.203 61.2739V57.6027C111.215 61.7455 120.25 64.2615 130.438 64.2615C140.626 64.2615 149.66 61.7455 154.673 57.6027V61.2739H154.672Z" fill="#B4D6F8"/>
<path d="M154.672 72.156C154.672 77.6387 143.347 82.4472 130.437 82.4472C117.527 82.4472 106.203 77.6396 106.203 72.156V68.7073C111.215 72.8501 120.25 75.366 130.438 75.366C140.626 75.366 149.66 72.8501 154.673 68.7073V72.156H154.672Z" fill="#B4D6F8"/>
<path d="M131.862 35.5895C138.209 35.8395 144.056 37.4767 147.502 39.97C147.844 40.218 148.242 40.3345 148.634 40.3298C149.212 40.3222 149.781 40.0504 150.147 39.5457C150.759 38.6982 150.568 37.5136 149.723 36.9019C145.637 33.9437 139.18 32.0859 132.013 31.8056C130.964 31.7563 130.086 32.5783 130.045 33.6237C130.002 34.6681 130.817 35.5488 131.862 35.5895Z" fill="#D9EAFB"/>
</g>
<defs>
<clipPath id="clip0_65_791">
<rect width="90" height="90" fill="white" transform="translate(10.4375)"/>
</clipPath>
<clipPath id="clip1_65_791">
<rect width="60" height="60" fill="white" transform="translate(100.438 26.25)"/>
</clipPath>
</defs>
</svg>
