<svg width="167" height="94" viewBox="0 0 167 94" fill="none" xmlns="http://www.w3.org/2000/svg">
<path d="M2 92.5H165.23" stroke="#D9EAFB" stroke-width="3" stroke-linecap="round"/>
<path fill-rule="evenodd" clip-rule="evenodd" d="M93.8374 89.8251H43.0148C20.3629 89.8251 2 71.4622 2 48.8103V45.9126C2 21.6603 21.6603 2 45.9126 2H93.8374V30.9778H50.3707C41.63 30.9778 34.5443 38.0635 34.5443 46.8042C34.5443 55.5448 41.63 62.6305 50.3707 62.6305H93.8374V89.8251Z" fill="#B4D6F8"/>
<path d="M43.0148 89.8251V89.8251C20.3629 89.8251 2 71.4622 2 48.8103V48.8103M43.0148 89.8251H93.8374M43.0148 89.8251C20.3629 89.8251 2 71.4622 2 48.8103M93.8374 30.9778H104.983V2H93.8374M93.8374 30.9778V2M93.8374 30.9778H50.3707M93.8374 2H45.9126M93.8374 62.6305H104.983V89.8251H93.8374M93.8374 62.6305V89.8251M93.8374 62.6305H50.3707M2 48.8103V45.9126M2 45.9126C2 21.6603 21.6603 2 45.9126 2M2 45.9126V45.9126C2 21.6603 21.6603 2 45.9126 2V2M50.3707 30.9778C41.63 30.9778 34.5443 38.0635 34.5443 46.8042M50.3707 30.9778V30.9778C41.63 30.9778 34.5443 38.0635 34.5443 46.8042V46.8042M34.5443 46.8042C34.5443 55.5448 41.63 62.6305 50.3707 62.6305M34.5443 46.8042V46.8042C34.5443 55.5448 41.63 62.6305 50.3707 62.6305V62.6305" stroke="#1B8CFF" stroke-width="4"/>
<path d="M89.3794 14.9285H49.0333C31.4289 14.9285 17.1577 29.1997 17.1577 46.8041V46.8041C17.1577 64.4085 31.4289 78.6797 49.0333 78.6797H89.3794" stroke="#D9EAFB" stroke-width="9"/>
<circle cx="139.756" cy="77.7882" r="14.7118" fill="#1B8CFF"/>
<path d="M140.439 71.7976V73.9222H139.394V71.7976H140.439ZM140.314 83.1728V85.0327H139.276V83.1728H140.314ZM141.707 80.9716C141.707 80.693 141.644 80.4422 141.519 80.2193C141.393 79.9964 141.187 79.7921 140.899 79.6063C140.611 79.4205 140.225 79.2487 139.742 79.0908C139.157 78.9097 138.651 78.6891 138.224 78.4291C137.801 78.169 137.474 77.8463 137.242 77.4608C137.014 77.0754 136.9 76.6087 136.9 76.0607C136.9 75.4895 137.023 74.9972 137.27 74.5839C137.516 74.1706 137.864 73.8525 138.314 73.6296C138.765 73.4067 139.294 73.2953 139.903 73.2953C140.376 73.2953 140.799 73.3672 141.17 73.5112C141.542 73.6505 141.855 73.8595 142.111 74.1381C142.371 74.4168 142.568 74.7581 142.703 75.1621C142.842 75.5661 142.912 76.0328 142.912 76.5622H141.63C141.63 76.2511 141.593 75.9655 141.519 75.7054C141.444 75.4454 141.333 75.2201 141.184 75.0298C141.036 74.8347 140.855 74.6861 140.641 74.5839C140.427 74.4771 140.181 74.4237 139.903 74.4237C139.513 74.4237 139.19 74.4911 138.934 74.6257C138.684 74.7604 138.498 74.9508 138.377 75.1969C138.256 75.4384 138.196 75.7194 138.196 76.0398C138.196 76.337 138.256 76.5971 138.377 76.82C138.498 77.0429 138.702 77.2449 138.99 77.426C139.283 77.6025 139.684 77.7766 140.195 77.9484C140.794 78.1388 141.303 78.3641 141.721 78.6241C142.139 78.8795 142.457 79.1953 142.675 79.5715C142.893 79.943 143.002 80.405 143.002 80.9577C143.002 81.5567 142.868 82.0629 142.598 82.4762C142.329 82.8849 141.951 83.196 141.463 83.4096C140.975 83.6233 140.404 83.7301 139.749 83.7301C139.355 83.7301 138.965 83.6767 138.579 83.5699C138.194 83.463 137.845 83.2889 137.534 83.0474C137.223 82.8013 136.975 82.4785 136.789 82.0792C136.603 81.6751 136.51 81.1806 136.51 80.5954H137.806C137.806 80.9902 137.862 81.3176 137.973 81.5776C138.089 81.833 138.242 82.0374 138.433 82.1906C138.623 82.3392 138.832 82.446 139.06 82.511C139.292 82.5714 139.522 82.6016 139.749 82.6016C140.167 82.6016 140.52 82.5366 140.808 82.4066C141.101 82.2719 141.324 82.0815 141.477 81.8354C141.63 81.5892 141.707 81.3013 141.707 80.9716Z" fill="white"/>
</svg>
